<svg viewBox="0 0 39 39" xmlns="http://www.w3.org/2000/svg"><g fill="none" fill-rule="evenodd"><circle fill="#000" cx="19.5" cy="19.5" r="19.5"/><path d="M9 27.925h6.378v-.36l-2.41-2.937c-.092-.18-.138-.476-.138-.885v-7.955l5.577 12.137h.663l4.784-12.137v9.77c.033.083.011.17-.065.262s-.683.69-1.821 1.793v.358h8.391v-.357l-1.769-1.769c-.055.085-.09-.03-.102-.341-.013-.313-.013-4.343 0-12.09.012-.175.064-.303.157-.384.093-.081.676-.636 1.75-1.664V11h-5.908l-4.214 10.482L15.483 11H9.275v.368l2.145 2.573c.11.132.155.36.138.683-.018.323-.018 3.433 0 9.33.014.327-.031.552-.138.674A451.85 451.85 0 0 0 9 27.564" fill="#FFF"/></g></svg>