<svg viewBox="0 0 39 39" xmlns="http://www.w3.org/2000/svg"><g fill-rule="nonzero" fill="none"><path d="M19.207 0C8.6 0 0 8.6 0 19.207c0 10.61 8.6 19.208 19.207 19.208 10.607 0 19.206-8.598 19.206-19.207C38.413 8.6 29.813 0 19.208 0z" fill="#007BBE"/><g fill="#FFF"><path d="M24.473 16c-2.085 0-3.02 1.135-3.542 1.936v.038h-.026a.21.21 0 0 0 .026-.038v-1.66H17C17.052 17.373 17 28 17 28h3.93v-6.549c0-.352.026-.699.13-.95.285-.7.932-1.428 2.017-1.428 1.424 0 1.992 1.076 1.992 2.652V28H29v-6.722C29 17.675 27.058 16 24.473 16zM12.516 9C10.996 9 10 10.082 10 11.5c0 1.387.964 2.5 2.457 2.5h.029C14.036 14 15 12.887 15 11.5c-.029-1.418-.964-2.5-2.484-2.5zM10 16h4v12h-4z"/></g></g></svg>