<svg width="724" height="502" xmlns="http://www.w3.org/2000/svg"><g fill="none" fill-rule="evenodd"><path d="M604.944 170C611.488 192.068 615 215.43 615 239.606c0 12.366-.92 24.519-2.693 36.394l-31.151-6.612a214.869 214.869 0 0 0 2.065-29.782c0-21.626-3.224-42.503-9.221-62.181L604.944 170z" stroke="#4285F4"/><path d="M203 417c-47.388-44.552-77-107.932-77-178.255 0-55.98 18.764-107.56 50.323-148.745" stroke="#CCC" stroke-dasharray="5"/><path d="M268 339c.33.336.664.67 1 1" stroke="#CCC"/><path d="M272 343c25.765 24.202 60.631 39 99.154 39 7.715 0 15.355-.596 22.846-1.772" stroke="#CCC" stroke-dasharray="4.877,4.877"/><path d="M395 380.44c.667-.142 1.334-.288 2-.44M484 324c.337-.663.67-1.33 1-2" stroke="#CCC"/><path d="M487 319c13.196-21.59 21-48.323 21-79.67 0-7.239-.965-14.953-2.483-22.33" stroke="#CCC" stroke-dasharray="5.057,5.057"/><path d="M505 215c-.117-.67-.236-1.337-.359-2H503" stroke="#CCC"/><path d="M499 213H375" stroke="#CCC" stroke-dasharray="4.875,4.875"/><path stroke="#CCC" d="M373 213h-2v2"/><path d="M371 219v46" stroke="#CCC" stroke-dasharray="5.217000000000001,5.217"/><path stroke="#CCC" d="M371 266v2h2"/><path d="M377 268h67" stroke="#CCC" stroke-dasharray="5.057,5.057"/><path d="M446 268h2a85.515 85.515 0 0 1-.423 2" stroke="#CCC"/><path d="M446 273.992C436.945 305.854 408.131 324 370.579 324 323.736 324 286 286.077 286 239s37.736-85 84.579-85c18.791 0 35.887 6.243 49.711 16.614" stroke="#CCC" stroke-dasharray="5.009,5.009"/><path d="M422 172.118c.53.29 1.054.584 1.574.882l1.426-1" stroke="#CCC"/><path d="M428 169l35-35" stroke="#CCC" stroke-dasharray="4.836,4.836"/><path d="M464.067 133l.933-1.56c-.331-.484-.665-.963-1-1.44" stroke="#CCC"/><path d="M461 128.305C436.234 108.235 405.243 96 370.765 96 314.107 96 265.382 128.487 242 176" stroke="#CCC" stroke-dasharray="5.005,5.005"/><path d="M242 177c-.338.664-.671 1.331-1 2" stroke="#CCC"/><path d="M505.69 267.468c1.514-9.043 2.31-18.578 2.31-28.586 0-8.412-1.305-17.47-3.262-25.882H371v55l134.69-.532z" stroke="#4285F4"/><path d="M319.113 171.994c14.387-11.288 32.52-18.002 52.265-18.002 20.23 0 38.502 7.21 52.858 19.008L466 131.05C440.55 108.766 407.922 95 371.378 95c-34.795 0-66.597 12.27-91.378 32.76l39.113 44.234z" stroke="#DB3236"/><path d="M233.402 176C223.544 195.518 218 217.62 218 241.078c0 41.475 17.33 78.71 45.195 104.922L301 300.377c-14.872-15.305-24.006-36.2-24.006-59.3 0-14.923 3.813-28.93 10.524-41.1L233.402 176z" stroke="#F4C20D"/><path d="M315 370.87c17.192 7.172 36.11 11.13 56 11.13v-58.562c-11.603 0-22.65-2.288-32.713-6.438L315 370.87zM442.313 302c-10.8 15.453-28.081 25.416-49.313 28.877L399.642 389c37.73-6.259 71.612-27.312 92.358-61.105L442.313 302z" stroke="#3CBA54"/><path d="M476 460.081C443.924 475.411 407.97 484 370 484v-31.344c32.092 0 62.53-7.042 89.835-19.656L476 460.081z" stroke="#F4C20D"/><path d="M429.135 1C463.528 9.446 495.058 25.137 522 46.357L499.924 69c-22.26-16.992-47.98-29.71-75.924-36.921L429.135 1z" stroke="#DB3236"/><path d="M178.63 392c-28.027-35.394-46.536-78.76-51.63-126.175L158.058 261c4.212 41.749 20.355 79.947 44.942 111.088L178.63 392z" stroke="#4285F4"/><path d="M182.509 22A287.3 287.3 0 0 0 123 93.442L145.418 106A261.48 261.48 0 0 1 200 40.854L182.509 22z" stroke="#DB3236"/><path d="M537 417c47.388-44.552 77-107.932 77-178.255 0-55.98-18.764-107.56-50.324-148.745" stroke="#CCC" stroke-dasharray="5"/><path d="M442 490c66.06-18.873 121.436-62.899 155-121M393 500.034c-7.52.64-15.131.966-22.819.966h.105c-35.905 0-70.125-7.118-101.286-20M628.288 283A263.801 263.801 0 0 0 632 238.799C632 145.988 583.751 64.462 511 18" stroke="#CCC"/><path d="M682.889 248c.074-2.869.111-5.746.111-8.633 0-19.594-1.716-38.769-5-57.367M651 377a307.295 307.295 0 0 0 26-76M609 442a318.159 318.159 0 0 0 18-24" stroke="#CCC" stroke-dasharray="5"/><path d="M635.482 136c10.017 25.89 16.398 53.59 18.518 82.474l-22.922.526c-2.014-26.25-7.896-51.417-17.078-74.933L635.482 136z" stroke="#F4C20D"/><path d="M531.777 477A288.866 288.866 0 0 0 609 399.602L586.327 387A262.9 262.9 0 0 1 520 453.751L531.777 477zM557.492 22A287.314 287.314 0 0 1 617 93.442L594.582 106A261.497 261.497 0 0 0 540 40.854L557.492 22z" stroke="#3CBA54"/><path d="M688.831 303A322.696 322.696 0 0 0 695 248l-11.172.34-6.985.185a303.09 303.09 0 0 1-5.843 51.02L688.831 303z" stroke="#DB3236"/><path d="M637.29 426c9.782-14.046 18.171-28.332 25.71-43.864L645.658 375A309.55 309.55 0 0 1 622 415.142L637.29 426z" stroke="#F4C20D"/><path d="M47 418C17.687 365.057 1 304.161 1 239.37 1 220.9 2.356 202.744 4.975 185" stroke="#CCC"/><path d="M181 496c-44.045-32.63-79.412-76.332-102-127M63.322 328C55.3 299.946 51 270.306 51 239.656 51 158.921 80.825 85.191 130 29" stroke="#CCC" stroke-dasharray="5"/><path d="M187 431c-50.522-48.24-82-116.28-82-191.676 0-30.97 5.311-60.698 15.07-88.324" stroke="#CCC"/><path d="M116 316.502c-7.39-24.396-11.365-50.282-11.365-77.097 0-25.822 3.685-50.78 10.557-74.374L92.602 158C84.895 184.29 81 211.552 81 239.405c0 28.98 4.215 57.323 12.559 84.595L116 316.502z" stroke="#F4C20D"/><path d="M82 410.541c14.193 23.877 31.34 45.903 51.27 65.802A336.56 336.56 0 0 0 151.216 493L161 480.38A320.025 320.025 0 0 1 96.099 403L82 410.541z" stroke="#DB3236"/><path d="M76.64 114A318.57 318.57 0 0 1 111 53.304L97.929 44A333.07 333.07 0 0 0 62 107.45L76.64 114z" stroke="#4285F4"/><path d="M232.352 499A295.626 295.626 0 0 1 163 447.914L175.947 435A277.291 277.291 0 0 0 241 482.921L232.352 499z" stroke="#3CBA54"/><path d="M709.964 144C718.458 174.34 723 206.327 723 239.372c0 50.75-10.711 99.002-30 142.628M657 34a353.545 353.545 0 0 1 41 75M190 240c0-35.005 9.957-67.677 27.184-95.318C248.878 93.827 305.182 60 369.358 60c10.447 0 20.685.896 30.642 2.616" stroke="#CCC"/><path d="M259 71c31.858-20.86 70.006-33 111.007-33 34.744 0 67.439 8.716 95.993 24.071" stroke="#CCC" stroke-dasharray="5"/><path d="M472 398.953C442.506 417.97 407.408 429 369.743 429c-39.984 0-77.074-12.43-107.637-33.647C233.89 375.768 211.238 348.697 197 317M472 94c45.965 32.31 76 85.724 76 146.15 0 26.337-5.706 51.343-15.95 73.85" stroke="#CCC"/></g></svg>