<svg width="414" height="63" viewBox="0 0 414 63" xmlns="http://www.w3.org/2000/svg"><title>play_devconsole_hlock</title><defs><linearGradient x1="91.5%" y1="5%" x2="-38.3%" y2="71.9%" id="a"><stop stop-color="#00A0FF" offset="0%"/><stop stop-color="#00A1FF" offset=".7%"/><stop stop-color="#00BEFF" offset="26%"/><stop stop-color="#00D2FF" offset="51.2%"/><stop stop-color="#00DFFF" offset="76%"/><stop stop-color="#00E3FF" offset="100%"/></linearGradient><linearGradient x1="107.6%" y1="50%" x2="-130.5%" y2="50%" id="b"><stop stop-color="#FFE000" offset="0%"/><stop stop-color="#FFBD00" offset="40.9%"/><stop stop-color="#FFA500" offset="77.5%"/><stop stop-color="#FF9C00" offset="100%"/></linearGradient><linearGradient x1="86.2%" y1="17.8%" x2="-50.1%" y2="194.8%" id="c"><stop stop-color="#FF3A44" offset="0%"/><stop stop-color="#C31162" offset="100%"/></linearGradient><linearGradient x1="-18.8%" y1="-54.2%" x2="42.1%" y2="24.9%" id="d"><stop stop-color="#32A071" offset="0%"/><stop stop-color="#2DA771" offset="6.8%"/><stop stop-color="#15CF74" offset="47.6%"/><stop stop-color="#06E775" offset="80.1%"/><stop stop-color="#00F076" offset="100%"/></linearGradient></defs><g fill="none"><path d="M123.6 23.8a9.6 9.6 0 0 0-9.8 9.7c0 5.6 4.4 9.8 9.8 9.8 5.5 0 10-4.2 10-9.8 0-5.6-4.5-9.7-10-9.7zm0 15.6c-3 0-5.5-2.4-5.5-5.9 0-3.5 2.6-5.9 5.5-5.9 3 0 5.6 2.4 5.6 6 0 3.4-2.6 5.8-5.6 5.8zM150.1 26h-.2a6.8 6.8 0 0 0-5.2-2.1 9.7 9.7 0 0 0-9.4 9.7c0 5.5 4.5 9.8 9.4 9.8 2.4 0 4.3-1 5.2-2.3h.2v1.4c0 3.8-2 5.8-5.3 5.8a5.4 5.4 0 0 1-5-3.5l-3.7 1.5c1 2.6 4 5.8 8.7 5.8 5 0 9.4-3 9.4-10.1V24.4H150v1.5zm-5 13.5c-3 0-5.5-2.5-5.5-5.8 0-3.5 2.5-6 5.5-6s5.3 2.5 5.3 6c0 3.3-2.3 5.8-5.3 5.8zm-43-15.6a9.6 9.6 0 0 0-9.9 9.7c0 5.6 4.5 9.8 10 9.8a9.8 9.8 0 1 0-.1-19.5zm0 15.6c-3 0-5.5-2.4-5.5-5.9 0-3.5 2.5-5.9 5.5-5.9s5.6 2.4 5.6 6c0 3.4-2.6 5.8-5.6 5.8zM76.5 26.8v4h10a8.7 8.7 0 0 1-2.3 5.3c-1.4 1.4-3.7 3-7.7 3a11 11 0 0 1-11-11 11 11 0 0 1 18.5-8l3-3a15.4 15.4 0 0 0-26 11c0 8.4 7 15.2 15.5 15.2 4.5 0 8-1.5 10.6-4.3a13.5 13.5 0 0 0 3.4-12.2h-14zM181.2 30c-.8-2.2-3.3-6.2-8.4-6.2-5 0-9.2 4-9.2 9.7 0 5.5 4.1 9.8 9.7 9.8 4.5 0 7.1-2.8 8.2-4.4l-3.3-2.2a5.6 5.6 0 0 1-4.9 2.7 5 5 0 0 1-4.8-3l13.2-5.3-.5-1.1zm-13.4 3.2c0-3.7 3-5.7 5.2-5.7 1.7 0 3.1.9 3.6 2.1l-8.8 3.6zm-10.7 9.5h4.4V14H157v28.7zM201.5 14H191v28.7h4.4V31.8h6c4.8 0 9.5-3.4 9.5-8.9 0-5.4-4.7-8.9-9.5-8.9zm.1 13.8h-6.1V18h6.1a5 5 0 0 1 5 5 5 5 0 0 1-5 4.8zm11.7 14.9h4.4V14h-4.4v28.7zm15-19c-3.2 0-6.4 1.4-7.7 4.4l3.8 1.6c.8-1.6 2.3-2.1 4-2.1 2.2 0 4.4 1.3 4.5 3.7v.3a9.6 9.6 0 0 0-4.5-1.1c-4.2 0-8.4 2.2-8.4 6.4 0 3.8 3.4 6.3 7.2 6.3 3 0 4.5-1.3 5.5-2.8h.2v2.2h4.1v-11c0-5-3.8-7.9-8.7-7.9zm-.6 15.7c-1.4 0-3.3-.7-3.3-2.4 0-2.2 2.4-3 4.5-3 2 0 2.8.3 4 .9a5.2 5.2 0 0 1-5.2 4.5zm24.5-15l-5 12.4-5.2-12.5h-4.7l7.7 17.4-4.4 9.6h4.5l11.9-27h-4.8z" fill="#000" opacity=".5"/><path d="M1 1c-.7.7-1 1.6-1 2.8v43.4c0 1.2.3 2.1 1 2.7v.2l24.8-24.3v-.6L1 1l-.2.2z" fill="url(#a)" transform="translate(0 3)"/><path d="M34 33.9l-8.2-8.1v-.6l8.2-8h.2l9.7 5.5c2.8 1.5 2.8 4 0 5.6l-9.7 5.5H34z" fill="url(#b)" transform="translate(0 3)"/><path d="M34.2 33.8l-8.4-8.3L.9 49.9c1 1 2.5 1.1 4.2.2l29-16.3" fill="url(#c)" transform="translate(0 3)"/><path d="M34.2 17.2L5 1C3.4 0 1.8.1.9 1.1l24.9 24.4 8.4-8.3z" fill="url(#d)" transform="translate(0 3)"/><g fill="#000"><path d="M34 36.6L5 52.8c-1.6.9-3 .8-4 0v.2c1 .8 2.4.9 4 0l29.2-16.3-.2-.2z" opacity=".2"/><path d="M1 52.6C.2 52 0 51.1 0 50v.3c0 1.2.3 2.1 1 2.7v-.4z" opacity=".1"/></g><path d="M44 31l-10 5.6.2.2 9.7-5.5c1.4-.7 2.1-1.8 2.1-2.8-.1 1-.8 1.8-2 2.5z" fill="#000" opacity=".1"/><path d="M5 4.2L44 26c1.2.7 1.9 1.6 2 2.5 0-1-.7-2-2-2.8L5 3.9c-2.7-1.5-5-.2-5 3V7c0-3 2.3-4.3 5-2.8z" fill="#FFF" opacity=".3"/></g></svg>