<svg xmlns="http://www.w3.org/2000/svg" xmlns:xlink="http://www.w3.org/1999/xlink" viewBox="0 0 153.09 30.63"><defs><style>.cls-1{opacity:0.54;}.cls-2{fill:url(#linear-gradient);}.cls-3{fill:url(#linear-gradient-2);}.cls-4{fill:url(#linear-gradient-3);}.cls-5{fill:url(#linear-gradient-4);}.cls-6{opacity:0.1;}.cls-7{opacity:0.07;}.cls-8{fill:#fff;opacity:0.3;}</style><linearGradient id="linear-gradient" x1="14.09" y1="1.87" x2="-5.9" y2="21.86" gradientUnits="userSpaceOnUse"><stop offset="0" stop-color="#008eff"/><stop offset="0.01" stop-color="#008fff"/><stop offset="0.26" stop-color="#00acff"/><stop offset="0.51" stop-color="#00c0ff"/><stop offset="0.76" stop-color="#00cdff"/><stop offset="1" stop-color="#00d1ff"/></linearGradient><linearGradient id="linear-gradient-2" x1="26.45" y1="15.32" x2="-2.37" y2="15.32" gradientUnits="userSpaceOnUse"><stop offset="0" stop-color="#ffd800"/><stop offset="1" stop-color="#ff8a00"/></linearGradient><linearGradient id="linear-gradient-3" x1="17.69" y1="18.05" x2="-9.41" y2="45.15" gradientUnits="userSpaceOnUse"><stop offset="0" stop-color="#ff3a44"/><stop offset="1" stop-color="#b11162"/></linearGradient><linearGradient id="linear-gradient-4" x1="-3.19" y1="-8.29" x2="8.92" y2="3.81" gradientUnits="userSpaceOnUse"><stop offset="0" stop-color="#328e71"/><stop offset="0.07" stop-color="#2d9571"/><stop offset="0.48" stop-color="#15bd74"/><stop offset="0.8" stop-color="#06d575"/><stop offset="1" stop-color="#00de76"/></linearGradient></defs><title>Asset 1</title><g id="Layer_2" data-name="Layer 2"><g id="Layer_1-2" data-name="Layer 1"><path class="cls-1" d="M73.32,12.26a5.88,5.88,0,1,0,5.9,5.89A5.8,5.8,0,0,0,73.32,12.26Zm0,9.45A3.4,3.4,0,0,1,70,18.15a3.33,3.33,0,1,1,6.64,0A3.4,3.4,0,0,1,73.32,21.71Zm15.81-8.13H89a4.08,4.08,0,0,0-3.1-1.32,5.89,5.89,0,0,0,0,11.76A4,4,0,0,0,89,22.69h.09v.85c0,2.25-1.2,3.45-3.14,3.45a3.25,3.25,0,0,1-3-2.09l-2.26.93A5.62,5.62,0,0,0,86,29.31c3,0,5.59-1.79,5.59-6.13V12.62H89.13Zm-3,8.13a3.38,3.38,0,0,1-3.28-3.54,3.41,3.41,0,0,1,3.28-3.59,3.32,3.32,0,0,1,3.14,3.59A3.28,3.28,0,0,1,86.17,21.71ZM60.44,12.26a5.88,5.88,0,1,0,5.9,5.89A5.8,5.8,0,0,0,60.44,12.26Zm0,9.45a3.4,3.4,0,0,1-3.32-3.56,3.33,3.33,0,1,1,6.64,0A3.4,3.4,0,0,1,60.44,21.71ZM45.12,14.07v2.49h6a5.2,5.2,0,0,1-1.36,3.15,6.15,6.15,0,0,1-4.61,1.82,6.55,6.55,0,0,1-6.55-6.64,6.55,6.55,0,0,1,6.55-6.64A6.38,6.38,0,0,1,49.62,10l1.76-1.76a8.67,8.67,0,0,0-6.26-2.52,9.26,9.26,0,0,0-9.27,9.13A9.26,9.26,0,0,0,45.12,24a8.3,8.3,0,0,0,6.37-2.56,8.22,8.22,0,0,0,2.17-5.83,8,8,0,0,0-.14-1.56ZM107.78,16a5.46,5.46,0,0,0-5-3.75,5.6,5.6,0,0,0-5.55,5.89A5.75,5.75,0,0,0,103,24a5.82,5.82,0,0,0,4.9-2.6l-2-1.34a3.36,3.36,0,0,1-2.9,1.63,3,3,0,0,1-2.85-1.78l7.87-3.25Zm-8,2a3.23,3.23,0,0,1,3.07-3.44A2.28,2.28,0,0,1,105,15.78Zm-6.4,5.7H96V6.38H93.36ZM119.88,6.38H113.7V23.67h2.58V17.12h3.6a5.48,5.48,0,0,0,5.67-5.37A5.48,5.48,0,0,0,119.88,6.38Zm.07,8.34h-3.67V8.79H120a3,3,0,1,1,0,5.93Zm7,9h2.58V6.38H127Zm8.91-11.44a4.84,4.84,0,0,0-4.6,2.65l2.29,1a2.44,2.44,0,0,1,2.36-1.27,2.5,2.5,0,0,1,2.72,2.22V17a5.73,5.73,0,0,0-2.7-.67c-2.46,0-5,1.36-5,3.89,0,2.32,2,3.81,4.3,3.81a3.62,3.62,0,0,0,3.28-1.69h.1v1.33h2.49V17C141.15,14,138.86,12.23,135.89,12.23Zm-.3,9.48c-.85,0-2-.43-2-1.47,0-1.34,1.47-1.85,2.74-1.85a4.66,4.66,0,0,1,2.36.58A3.15,3.15,0,0,1,135.59,21.71Zm14.63-9.1-3,7.49h-.09l-3.07-7.49h-2.78l4.61,10.48-2.63,5.83H146l7.09-16.31Z"/><path class="cls-2" d="M.55.48A2.39,2.39,0,0,0,0,2.15V28.49a2.41,2.41,0,0,0,.55,1.67l.09.09L15.39,15.49v-.35L.64.39Z"/><path class="cls-3" d="M20.31,20.41l-4.92-4.92v-.35l4.92-4.91.11.06,5.83,3.31c1.67.94,1.67,2.49,0,3.44l-5.83,3.31Z"/><path class="cls-4" d="M20.42,20.35l-5-5L.55,30.16A2,2,0,0,0,3,30.23l17.39-9.88"/><path class="cls-5" d="M20.42,10.29,3,.4A1.93,1.93,0,0,0,.55.48L15.39,15.32Z"/><path class="cls-6" d="M20.31,20.24,3,30.06a2,2,0,0,1-2.39,0h0l-.09.09h0l.09.09h0a2,2,0,0,0,2.39,0l17.39-9.88Z"/><path class="cls-7" d="M.55,30A2.43,2.43,0,0,1,0,28.32v.17a2.41,2.41,0,0,0,.55,1.67l.09-.09Z"/><path class="cls-7" d="M26.25,16.86l-5.94,3.38.11.11L26.25,17a2.11,2.11,0,0,0,1.25-1.72h0A2.21,2.21,0,0,1,26.25,16.86Z"/><path class="cls-8" d="M3,.58,26.25,13.77a2.2,2.2,0,0,1,1.25,1.55h0a2.09,2.09,0,0,0-1.25-1.72L3,.4C1.36-.54,0,.24,0,2.15v.17C0,.42,1.36-.37,3,.58Z"/></g></g></svg>