<svg width="138" height="76" viewBox="0 0 138 76" xmlns="http://www.w3.org/2000/svg"><title>Group 14</title><defs><linearGradient x1="91.5%" y1="5%" x2="-38.3%" y2="71.9%" id="a"><stop stop-color="#008EFF" offset="0%"/><stop stop-color="#008FFF" offset="1%"/><stop stop-color="#00ACFF" offset="26%"/><stop stop-color="#00C0FF" offset="51%"/><stop stop-color="#00CDFF" offset="76%"/><stop stop-color="#00D1FF" offset="100%"/></linearGradient><linearGradient x1="91.3%" y1="50%" x2="-146.8%" y2="50%" id="b"><stop stop-color="#FFD800" offset="0%"/><stop stop-color="#FF8A00" offset="100%"/></linearGradient><linearGradient x1="86.3%" y1="17.8%" x2="-50.2%" y2="194.6%" id="c"><stop stop-color="#FF3A44" offset="0%"/><stop stop-color="#B11162" offset="100%"/></linearGradient><linearGradient x1="-18.8%" y1="-54.2%" x2="42.1%" y2="24.9%" id="d"><stop stop-color="#328E71" offset="0%"/><stop stop-color="#2D9571" offset="7%"/><stop stop-color="#15BD74" offset="48%"/><stop stop-color="#06D575" offset="80%"/><stop stop-color="#00DE76" offset="100%"/></linearGradient></defs><g fill="none" fill-rule="evenodd"><rect fill="#FFF" width="138" height="76" rx="3"/><g fill-rule="nonzero"><path d="M1.3.7C.7 1.5.4 2.4.5 3.3v40.9c0 1 .2 1.9.8 2.6l.1.1L24 24v-.5L1.4.6l-.1.1z" fill="url(#a)" transform="translate(15 14)"/><path d="M31.4 31.7L24 24v-.5l7.5-7.6h.2l8.9 5.2c2.5 1.5 2.5 3.9 0 5.3l-8.9 5.2h-.2z" fill="url(#b)" transform="translate(15 14)"/><path d="M31.6 31.6l-7.7-7.8-22.6 23c.8 1 2.2 1 3.8.1l26.5-15.3" fill="url(#c)" transform="translate(15 14)"/><path d="M31.6 16L5.1.6C3.5-.3 2-.2 1.3.7l22.6 23 7.7-7.7z" fill="url(#d)" transform="translate(15 14)"/><path d="M46.4 45.4L20.1 60.6c-1.5.9-2.8.8-3.6 0l-.2.2.2.1c.8.8 2.1.9 3.6 0l26.5-15.3-.2-.2zM16.3 60.5c-.6-.7-.9-1.6-.8-2.6v.3c0 1 .2 1.9.8 2.6l.1-.1-.1-.2zm39.2-20.3l-9 5.2.1.2 8.9-5.2c1.3-.7 1.9-1.7 1.9-2.6-.1.8-.8 1.7-2 2.4z" fill="#000" opacity=".1"/><path d="M20 14.9l35.5 20.5c1.1.6 1.8 1.5 2 2.4 0-1-.7-2-2-2.7L20.1 14.6c-2.6-1.4-4.6-.2-4.6 2.7v.3c0-3 2-4.2 4.6-2.7z" fill="#FFF" opacity=".3"/></g></g></svg>