<svg width="424" height="405" xmlns="http://www.w3.org/2000/svg"><g fill="none" fill-rule="evenodd"><g stroke="#286A17" stroke-width="1.3"><path d="M0 48.98h348.867M0 120.976h360.538M0 193.676h423.5M0 265.671h353.702M70 338h273M35 16v262M107 93v264M176.81 5.8V405M247.394 0v371.14M318.683 40.478V405M388.56 5.8V405"/></g><path d="M319 123l-3 3" stroke="#B0BEC5" stroke-width="1.3"/><path d="M314 128L112 335" stroke="#B0BEC5" stroke-width="1.3" stroke-dasharray="7.192,3.596"/><path d="M111 336l-3 3M106 267l-3-3" stroke="#B0BEC5" stroke-width="1.3"/><path d="M100 261l-61-62" stroke="#B0BEC5" stroke-width="1.3" stroke-dasharray="7.399,3.7"/><path d="M38 198l-3-3" stroke="#B0BEC5" stroke-width="1.3"/><path stroke="#2195F2" stroke-width="1.3" d="M389 71H284V49h67.242M408 102H284.001L284 80h104.978"/><path d="M361.813 338.084c0 23.431-18.994 42.424-42.424 42.424s-42.424-18.993-42.424-42.424c0-23.43 18.994-42.424 42.424-42.424M55.515 308.265l-37.863 5.81 23.962 29.885z" stroke="#76BE5E" stroke-width="1.3"/><path d="M353.702 170.918a6.835 6.835 0 1 1 .001-13.67 6.835 6.835 0 0 1 0 13.67zM353.702 232.105a6.835 6.835 0 1 1 .001-13.671 6.835 6.835 0 0 1 0 13.67zM73.999 63.359L131.908 5.45c4.685-4.686 12.283-4.686 16.969 0 4.686 4.686 4.686 12.283 0 16.97l-96.173 96.172" stroke="#00E5FF" stroke-width="1.3"/><path fill="#76BF5E" d="M176.738 337.665h70.656V48.98h-70.656z"/><path d="M302.75 193.324c0 47.757-40.11 86.473-89.588 86.473-49.48 0-89.59-38.716-89.59-86.473 0-47.758 40.11-86.474 89.59-86.474 49.479 0 89.589 38.716 89.589 86.474" fill="#76BF5E"/><path d="M289.291 193.324c0 40.582-34.084 73.48-76.13 73.48-42.046 0-76.13-32.898-76.13-73.48 0-40.583 34.084-73.481 76.13-73.481 42.046 0 76.13 32.898 76.13 73.48" fill="#FFF"/><path d="M146.185 228.286c12.88 22.94 38.043 38.52 66.977 38.52 28.932 0 54.095-15.58 66.976-38.52H146.185z" fill="#4B7D2F"/></g></svg>
