<svg width="847" height="507" xmlns="http://www.w3.org/2000/svg"><g fill="none" fill-rule="evenodd"><path d="M663 455h43.365" stroke="#02A9F4" stroke-width="1.3"/><path d="M733.676 455.869c0 27.524-22.313 49.838-49.838 49.838-27.525 0-49.838-22.314-49.838-49.838 0-27.525 22.313-49.838 49.838-49.838 27.525 0 49.838 22.313 49.838 49.838z" stroke="#00E5FF" stroke-width="1.3"/><path d="M273.143 61.079l2.56-2.505" stroke="#B0BEC5" stroke-width="1.3"/><path stroke="#76BE5E" stroke-width="1.3" d="M547.5 300L514 358.024h67z"/><path stroke="#02A9F4" stroke-width="1.3" d="M107.634 376.705l.109-44.674L69 354.273z"/><path d="M305.5 433.532L23.808 151.838" stroke="#B0BEC5" stroke-width="1.3" stroke-dasharray="7.163,3.581"/><path d="M223.212 130.889h-28.107c-39.823 0-62.565-25.18-77.924-49.838C101.82 56.39 78.75 31.213 40 31.213H0" stroke="#76BE5E" stroke-width="1.3"/><path fill="#69B344" d="M846.136 163.132l-99.183 99.183-152.946-152.947 99.183-99.182zM192.922 377.04h212.567v-216.3H192.922z"/><path fill="#4B7D2F" d="M272.914 295.418h142.182V150.739H272.914zM337.506 356.888h49.493v-39.669h-49.493zM220.868 347.138h32.683v-33.257h-32.683zM202.414 295.418h33.744V185.542h-33.744zM730.286 37.623L693.02 74.89l-37.267-37.266L693.02.356zM794.864 101.86l-14.529 14.529-29.823-29.822 14.53-14.528z"/><path d="M620.714 304.242l130.213-130.213c6.79-6.79 17.798-6.79 24.587 0 6.79 6.788 6.79 17.797 0 24.587l-76.13 76.13" stroke="#00E5FF" stroke-width="1.3"/><path fill="#4B7D2F" d="M668.969 73.734L649.23 93.472l-24.663-24.664 19.738-19.738zM638.58 104.123l-19.739 19.739-24.663-24.664 19.738-19.738z"/><path d="M668.992 128.338a5.023 5.023 0 0 1 0 7.101 5.023 5.023 0 0 1-7.1 0 5.023 5.023 0 0 1 0-7.1 5.023 5.023 0 0 1 7.1 0zM688.313 147.659a5.023 5.023 0 0 1 0 7.1 5.023 5.023 0 0 1-7.101 0 5.023 5.023 0 0 1 0-7.1 5.023 5.023 0 0 1 7.1 0zM707.633 166.98a5.022 5.022 0 1 1-7.103 7.1 5.022 5.022 0 0 1 7.103-7.1z" stroke="#FFF" stroke-width="1.3"/><path d="M341.234 222.293h30.75c37.536 0 58.972-18.245 73.448-36.113 14.476-17.868 36.223-36.113 72.746-36.113h102.447" stroke="#02A9F4" stroke-width="1.3"/><path d="M259.452 186.143h-12.129M259.452 206.234h-12.129M259.452 246.417h-12.129M259.452 266.508h-12.129M259.452 286.6h-12.129" stroke="#FFF" stroke-width="1.3"/><path d="M361 337.031h185.313" stroke="#B0BEC5" stroke-width="1.3" stroke-dasharray="7.163,3.581"/></g></svg>
