<svg width="775" height="486" xmlns="http://www.w3.org/2000/svg"><g fill="none" fill-rule="evenodd"><path d="M706.676 455.869c0 27.524-22.313 49.838-49.838 49.838-27.525 0-49.838-22.314-49.838-49.838 0-27.525 22.313-49.838 49.838-49.838 27.525 0 49.838 22.313 49.838 49.838z" stroke="#00E5FF" stroke-width="1.3"/><path d="M246.143 61.079l2.56-2.505" stroke="#B0BEC5" stroke-width="1.3"/><path stroke="#76BE5E" stroke-width="1.3" d="M520.5 300L487 358.024h67z"/><path stroke="#02A9F4" stroke-width="1.3" d="M80.634 376.705l.109-44.674L42 354.273z"/><path d="M278.5 433.532L-3.192 151.838" stroke="#B0BEC5" stroke-width="1.3" stroke-dasharray="7.163,3.581"/><path d="M196.212 130.889h-28.107c-39.823 0-62.565-25.18-77.924-49.838C74.82 56.39 51.75 31.213 13 31.213H-27" stroke="#76BE5E" stroke-width="1.3"/><path fill="#69B344" d="M819.136 163.132l-99.183 99.183-152.946-152.947 99.183-99.182zM165.922 377.04h212.567v-216.3H165.922z"/><path fill="#4B7D2F" d="M245.914 295.418h142.182V150.739H245.914zM310.506 356.888h49.493v-39.669h-49.493zM193.868 347.138h32.683v-33.257h-32.683zM175.414 295.418h33.744V185.542h-33.744zM703.286 37.623L666.02 74.89l-37.267-37.266L666.02.356zM767.864 101.86l-14.529 14.529-29.823-29.822 14.53-14.528z"/><path d="M593.714 304.242l130.213-130.213c6.79-6.79 17.798-6.79 24.587 0 6.79 6.788 6.79 17.797 0 24.587l-76.13 76.13" stroke="#00E5FF" stroke-width="1.3"/><path fill="#4B7D2F" d="M641.969 73.734L622.23 93.472l-24.663-24.664 19.738-19.738zM611.58 104.123l-19.739 19.739-24.663-24.664 19.738-19.738z"/><path d="M641.992 128.338a5.023 5.023 0 0 1 0 7.101 5.023 5.023 0 0 1-7.1 0 5.023 5.023 0 0 1 0-7.1 5.023 5.023 0 0 1 7.1 0zM661.313 147.659a5.023 5.023 0 0 1 0 7.1 5.023 5.023 0 0 1-7.101 0 5.023 5.023 0 0 1 0-7.1 5.023 5.023 0 0 1 7.1 0zM680.633 166.98a5.022 5.022 0 1 1-7.103 7.1 5.022 5.022 0 0 1 7.103-7.1z" stroke="#FFF" stroke-width="1.3"/><path d="M314.234 222.293h30.75c37.536 0 58.972-18.245 73.448-36.113 14.476-17.868 36.223-36.113 72.746-36.113h102.447" stroke="#02A9F4" stroke-width="1.3"/><path d="M232.452 186.143h-12.129M232.452 206.234h-12.129M232.452 246.417h-12.129M232.452 266.508h-12.129M232.452 286.6h-12.129" stroke="#FFF" stroke-width="1.3"/><path d="M334 337.031h185.313" stroke="#B0BEC5" stroke-width="1.3" stroke-dasharray="7.163,3.581"/></g></svg>
