<svg width="815" height="434" xmlns="http://www.w3.org/2000/svg"><g fill="none" fill-rule="evenodd"><path d="M616.007 129.227L744.736.527" stroke="#00E5FF" stroke-width="1.3"/><path d="M52.131 50.53v48.544M30.125 73.831H73.49" stroke="#02A9F4" stroke-width="1.3"/><path d="M101.241 75.287c0 27.524-22.313 49.838-49.838 49.838-27.525 0-49.838-22.314-49.838-49.838S23.878 25.45 51.403 25.45c27.525 0 49.838 22.314 49.838 49.838z" stroke="#00E5FF" stroke-width="1.3"/><path stroke="#02A9F4" stroke-width="1.3" d="M256.459 98.785l10.109-38.697L228 70.682z"/><path d="M559 427.507l61.493-62.419M606.055 119.68L493.305 5.233" stroke="#B0BEC5" stroke-width="1.3" stroke-dasharray="7.457,3.729"/><path d="M644.55 290.35H447.626a19.395 19.395 0 0 1-13.611-5.577l-29.411-28.978h282.968l-29.411 28.978a19.395 19.395 0 0 1-13.611 5.578" fill="#4B7D2F"/><path d="M756.495 257.347H335.68a1.986 1.986 0 0 1-1.986-1.985V42.642c0-1.096.89-1.984 1.986-1.984h420.815c1.097 0 1.986.888 1.986 1.985v212.719a1.985 1.985 0 0 1-1.986 1.985" fill="#69B344"/><path stroke="#FFF" stroke-width="1.3" d="M346.61 134.467V53.141h398.788v188.253H595.232"/><path d="M484 363.088l69.735 69.735" stroke="#02A9F4" stroke-width="1.3"/><path d="M193.325 147.262L3.601 336.987" stroke="#B0BEC5" stroke-width="1.3" stroke-dasharray="7.163,3.581"/><path d="M483.611 170.088H376.2c-32.98 0-51.814 21.65-64.532 42.851-12.72 21.2-31.827 42.849-63.916 42.849H205" stroke="#00E5FF" stroke-width="1.3"/><path fill="#69B344" d="M193.095 316.727l-45.517 45.517L28.4 243.067l45.518-45.517z"/><path d="M84.155 228.68a24.54 24.54 0 0 0-17.411 7.213c-9.616 9.615-9.616 25.206 0 34.822a24.544 24.544 0 0 0 17.41 7.21 24.544 24.544 0 0 0 17.412-7.21c9.616-9.616 9.616-25.207 0-34.822a24.54 24.54 0 0 0-17.411-7.212m0 17a7.59 7.59 0 0 1 5.39 2.232c2.972 2.972 2.972 7.809 0 10.78a7.59 7.59 0 0 1-5.39 2.233 7.59 7.59 0 0 1-5.39-2.232c-2.972-2.972-2.972-7.81 0-10.781a7.59 7.59 0 0 1 5.39-2.232" fill="#4B7D2F"/><path d="M401.779 428.701c-12.265.123-22.307-9.72-22.43-21.985l-.453-45.238c-.123-12.264 9.72-22.307 21.985-22.429 12.265-.123 22.308 9.72 22.43 21.984l.453 45.238c.123 12.265-9.72 22.307-21.985 22.43M338.932 321.406c-10.36-6.565-24.081-3.49-30.647 6.87l-24.218 38.212c-6.567 10.36-3.491 24.08 6.869 30.648 10.36 6.565 24.081 3.49 30.647-6.87l24.219-38.212c6.566-10.36 3.49-24.081-6.87-30.647" fill="#69B344"/><path fill="#69B344" d="M391.05 401.045l-78.303-22.299 17.386-61.054 78.303 22.3z"/><path d="M334.48 352.471c4.473 4.471 4.473 11.721 0 16.192-4.471 4.472-11.721 4.472-16.192 0-4.472-4.471-4.472-11.721 0-16.192 4.47-4.472 11.72-4.472 16.193 0z" fill="#4B7D2F"/><path d="M396.057 356.732l-5.17 18.359M385.253 363.2l16.4 4.619" stroke="#FFF" stroke-width="1.3"/><path d="M411.993 371.326c-2.93 10.409-13.746 16.471-24.156 13.54-10.41-2.932-16.471-13.746-13.54-24.156 2.93-10.41 13.746-16.472 24.155-13.541 10.41 2.93 16.474 13.747 13.541 24.157z" stroke="#00E5FF" stroke-width="1.3"/><path d="M845.572 281.753L747.725 379.6c-6.563 6.564-17.206 6.564-23.77 0s-6.564-17.206 0-23.77l99.978-99.978" stroke="#76BE5E" stroke-width="1.3"/></g></svg>
