<svg width="82" height="96" viewBox="0 0 82 96" xmlns="http://www.w3.org/2000/svg" xmlns:xlink="http://www.w3.org/1999/xlink"><title>Page 1</title><defs><path id="a" d="M.2.8h57v56.9H.1z"/></defs><g fill="none" fill-rule="evenodd"><path d="M12.5 19.9l6.3 6.3" stroke="#E8EBED" stroke-width="2" stroke-linecap="round"/><path d="M31 38.4l18.2 18.2" stroke="#E8EBED" stroke-width="2" stroke-linecap="round" stroke-dasharray="17.195,17.195"/><path d="M55.3 62.7l6.4 6.4" stroke="#E8EBED" stroke-width="2" stroke-linecap="round"/><path d="M18.2 5.9l62.6 62.6" stroke="#E8EBED" stroke-width="2" stroke-linecap="round" stroke-dasharray="18"/><path d="M41.2 66.2a9 9 0 1 1-18 0 9 9 0 0 1 18 0zM19 44a9 9 0 1 1-18 0 9 9 0 0 1 18 0z" stroke="#455A64" stroke-width="2" stroke-linecap="round"/><g transform="translate(10 -.8)"><mask id="b" fill="#fff"><use xlink:href="#a"/></mask><path d="M27.5 51.5l-21.1-21A21 21 0 0 1 6.4.7L57 51.5a21 21 0 0 1-29.6 0" fill="#FF5252" mask="url(#b)"/></g></g></svg>