<svg width="533" height="464" xmlns="http://www.w3.org/2000/svg"><g fill="none" fill-rule="evenodd"><g stroke="#546E7A" stroke-width="1.3"><path d="M1.805 75.492H407.95M27.083 147.487h440.122M.083 220.188h490.499M1.083 292.183h531.122M29.705 364.177h440.5M94.374 18.376v374.27M166.016 40v360.619M235.893 32.31v399.202M306.477 2.512V435.3M377.765 31.811v431.7M447.643 0v436"/></g><path d="M476.123 147.562c0 15.773-12.787 28.562-28.562 28.562-15.774 0-28.561-12.789-28.561-28.562C419 131.788 431.787 119 447.561 119c15.775 0 28.562 12.788 28.562 28.562z" stroke="#76BE5E" stroke-width="1.3"/><path d="M164.988 219.613L24.528 76.191" stroke="#B0BEC5" stroke-width="1.3" stroke-dasharray="7.163,3.581"/><path d="M418.998 269.494L283.333 405.16c-5.05 5.05-13.238 5.05-18.29 0l-.001-.002c-5.05-5.05-5.05-13.239 0-18.289l182.602-182.602" stroke="#00E5FF" stroke-width="1.3"/><path stroke="#76BE5E" stroke-width="1.3" d="M141.634 97.674L141.743 53 103 75.242zM49.885 390.313l22.431-38.635-44.673-.109z"/><path d="M166.286 224.1l-73.208 71.192" stroke="#02A9F4" stroke-width="1.3"/><path d="M518.333 3.65l-2.51 2.553" stroke="#B0BEC5" stroke-width="1.3"/><path d="M513.448 8.617l-62.92 63.973" stroke="#B0BEC5" stroke-width="1.3" stroke-dasharray="6.772,3.386"/><path d="M449.34 73.797l-2.51 2.554M518.333 364.062l-2.51 2.553" stroke="#B0BEC5" stroke-width="1.3"/><path d="M513.449 369.03l-62.921 63.972" stroke="#B0BEC5" stroke-width="1.3" stroke-dasharray="6.772,3.386"/><path d="M449.34 434.209l-2.51 2.553" stroke="#B0BEC5" stroke-width="1.3"/><path d="M164.958 115.834h30.112c36.758 0 57.749-18.246 71.925-36.113 14.176-17.868 35.472-36.114 71.237-36.114h38.475" stroke="#00E5FF" stroke-width="1.3"/><path fill="#8AC34A" d="M395.274 314.615V147.487H146.39v167.128l-40.965 43.453v6.11h330.814v-6.11z"/><path fill="#4B7D2F" d="M151.39 309.615h238.884V152.487H151.39z"/><path d="M146.39 314.615h248.884V147.486H146.39v167.129zm10-10h228.884V157.486H156.39v147.129z" fill="#8AC34A"/><path d="M265.042 386.87L422.22 229.69" stroke="#00E5FF" stroke-width="1.3"/></g></svg>
