<svg width="76" height="96" viewBox="0 0 76 96" xmlns="http://www.w3.org/2000/svg"><title>Page 1</title><g fill="none" fill-rule="evenodd"><path d="M11.8 11.8L18 18" stroke="#E8EBED" stroke-width="2" stroke-linecap="round"/><path d="M31.2 31.2L51 51" stroke="#E8EBED" stroke-width="2" stroke-linecap="round" stroke-dasharray="18.511,18.511"/><path d="M57.4 57.4l6.4 6.4M1 37.8h9" stroke="#E8EBED" stroke-width="2" stroke-linecap="round"/><path d="M28.5 37.8h27.8" stroke="#E8EBED" stroke-width="2" stroke-linecap="round" stroke-dasharray="18.511,18.511"/><path d="M65.5 37.8h9m-62.7 26l6.3-6.4" stroke="#E8EBED" stroke-width="2" stroke-linecap="round"/><path d="M31.2 44.3L51 24.7" stroke="#E8EBED" stroke-width="2" stroke-linecap="round" stroke-dasharray="18.511,18.511"/><path d="M57.4 18.1l6.4-6.3M37.8 1v9m0 19.1v9" stroke="#E8EBED" stroke-width="2" stroke-linecap="round"/><path d="M59 37.1a21.3 21.3 0 1 0-34.8 16.4c2.4 2 3.9 4.8 3.9 8v5.4h19.4v-5.4c0-3.1 1.4-6 3.8-8C56 49.5 59 43.7 59 37" fill="#FFD600"/><path d="M43.5 79.1v.3a5.7 5.7 0 0 1-11.4-.1v-.2h11.4z" stroke="#455A64" stroke-width="2" stroke-linecap="round"/><path d="M46.8 67h-18m18 6h-18" stroke="#455A64" stroke-width="1.9" stroke-linecap="round"/></g></svg>